<svg width="148" height="132" viewBox="0 0 148 132" fill="none" xmlns="http://www.w3.org/2000/svg">
    <mask id="path-1-outside-1_4_4" maskUnits="userSpaceOnUse" x="39.7461" y="2" width="92" height="113"
            fill="black">
        <rect fill="white" x="39.7461" y="2" width="92" height="113"/>
        <path
            d="M128.479 39.3716C127.152 42.4915 123.987 44.2838 120.779 44.9918C118.743 45.4343 116.663 45.4786 114.584 45.4122C112.415 45.3458 110.225 45.1688 108.056 45.036C103.785 44.7705 99.5149 44.4608 95.2445 44.2616C92.0138 44.1067 88.6725 44.1288 85.5751 45.1688C85.6859 44.4829 85.8408 43.819 86.062 43.1774C86.6372 41.5179 87.5885 39.969 88.6504 38.5529C90.8634 35.6101 93.8728 33.2203 96.9258 31.1847C100.179 29.0384 103.719 27.2461 107.414 26.0291C111.132 24.8121 115.203 24.1705 119.031 25.0113C122.284 25.7193 125.47 27.4452 127.351 30.2332C129.143 32.8442 129.718 36.4287 128.479 39.3716ZM77.5652 41.6064C74.7329 39.1724 71.7015 36.9598 68.6923 34.747C65.7494 32.5786 62.9172 30.4545 60.2177 27.932C57.5846 25.4981 55.3277 22.9092 53.6018 19.8114C53.3805 19.4132 53.1814 19.0149 52.9823 18.6166C52.8937 18.4396 52.8052 18.2404 52.7167 18.0413C52.6725 17.9306 52.6282 17.8421 52.584 17.7315C52.5618 17.6873 52.5397 17.643 52.5176 17.5988C52.5176 17.5988 52.4733 17.5102 52.4733 17.4881C52.1193 16.6473 51.8538 15.7622 51.6546 14.855C51.2785 13.1955 51.1899 11.3368 51.544 9.69945C51.7432 8.81439 51.9865 8.1285 52.429 7.3983C52.8273 6.73447 53.4027 6.0707 54.0222 5.65029C55.7038 4.43332 57.7837 4.21202 59.8194 4.45544C61.7887 4.67667 63.7801 5.40687 65.5503 6.26981C67.3205 7.13275 69.0021 8.21699 70.4846 9.41185C73.6045 11.9343 76.1269 15.0985 78.0962 18.5723C80.3089 22.4888 81.7029 26.7814 82.5658 31.1847C83.4952 35.9861 83.7607 40.8983 83.7607 45.7884V45.899C83.3624 46.0981 82.9863 46.3194 82.6101 46.5628C81.0391 44.7927 79.3574 43.1553 77.5652 41.6064ZM83.7165 47.9568C83.6279 47.8461 83.5615 47.7355 83.473 47.647C83.5615 47.6028 83.65 47.5585 83.7165 47.4921V47.9568ZM87.4779 87.2984C92.4563 87.3426 97.4575 87.1214 102.414 86.6347C107.436 86.148 112.459 85.4621 117.371 84.3774C117.726 84.289 118.08 84.2226 118.434 84.112C118.168 88.847 117.947 93.5821 117.792 98.3178C117.726 100.464 117.659 102.632 117.615 104.778C117.593 105.885 117.57 106.969 117.548 108.075C117.526 109.027 117.504 109.978 117.526 110.93C112.835 111.35 108.144 111.771 103.431 112.036C98.4309 112.302 93.4082 112.412 88.4071 112.412C87.854 112.412 87.3009 112.412 86.7478 112.39C86.8142 112.302 86.8584 112.191 86.8805 112.08C87.0575 110.067 86.8584 108.009 86.7699 105.973C86.6814 103.938 86.6151 101.902 86.5487 99.8664C86.416 95.795 86.3053 91.7237 86.2169 87.6524V87.2541C86.6372 87.2763 87.0575 87.2763 87.4779 87.2984ZM58.337 110.797C53.4469 110.288 48.5569 109.646 43.7111 108.872C43.1358 108.783 42.5383 108.695 41.9631 108.584C42.0958 104.933 42.2064 101.26 42.4056 97.6092C42.6268 93.6933 42.8924 89.7768 43.2243 85.8604C43.3792 83.9129 43.5562 81.9881 43.7332 80.0627C48.3577 81.6563 53.115 82.9173 57.8944 83.9571C62.7845 85.0412 67.7187 85.8382 72.6752 86.3913C76.7465 86.8559 80.84 87.1214 84.9334 87.232C84.9998 90.9936 85.1104 94.7331 85.221 98.4947C85.2874 100.773 85.376 103.053 85.4645 105.354C85.5087 106.483 85.553 107.589 85.5972 108.717C85.6416 109.89 85.708 111.041 85.9071 112.213C85.9292 112.28 85.9514 112.346 85.9956 112.39C81.7693 112.346 77.5431 112.213 73.3389 111.992C68.3383 111.726 63.3155 111.328 58.337 110.797ZM129.541 31.2953C128.081 27.932 125.049 25.5423 121.664 24.2811C117.881 22.8649 113.721 22.9535 109.804 23.8607C105.799 24.79 101.949 26.4937 98.4088 28.5737C96.6604 29.5915 95.0011 30.7421 93.3861 31.9812C91.859 33.154 90.4209 34.4152 89.1157 35.8534C87.1682 37.9997 85.5087 40.5443 84.8228 43.3765C84.8228 40.3452 84.6458 37.3138 84.2696 34.3266C83.6721 29.5252 82.4995 24.79 80.4638 20.3867C78.7157 16.6252 76.3481 13.1292 73.3832 10.2305C70.4403 7.33193 66.9 5.05283 62.9836 3.76948C60.9036 3.10565 58.6024 2.7738 56.4119 3.17209C54.3762 3.54819 52.5618 4.6988 51.3891 6.42468C50.3491 7.97357 49.9287 9.85438 49.9066 11.6909C49.8623 13.5938 50.2385 15.5189 50.8802 17.289C52.1636 20.7629 54.3541 23.8607 56.8323 26.5601C59.3548 29.3039 62.2534 31.6493 65.2183 33.9062C66.723 35.0347 68.2276 36.1632 69.7322 37.2696C71.259 38.398 72.7415 39.5043 74.1797 40.6328C77.0783 42.934 79.8885 45.4343 82.2339 48.3108C82.3888 48.4879 82.5216 48.6648 82.6765 48.8419C76.2597 48.51 69.8429 48.1559 63.4261 47.824C58.0714 47.5364 52.6946 47.2488 47.3178 47.0053C46.4548 46.9611 46.4548 48.3108 47.3178 48.3551C56.8765 48.864 66.4353 49.3287 75.9942 49.7933C78.5387 49.9261 81.1054 50.0367 83.65 50.1695C83.6943 50.2359 83.7386 50.3022 83.805 50.3686C83.8492 50.435 83.8934 50.4793 83.9598 50.5235C83.9377 50.612 83.9156 50.6784 83.8934 50.7669C83.5394 51.8954 83.0305 52.9575 82.4109 53.9532C81.1718 55.9667 79.5123 57.6926 77.5209 58.9317C76.3703 59.6396 75.1755 60.1706 73.8921 60.5246C73.1177 60.7458 73.4495 61.919 74.224 61.7199C79.1804 60.4361 83.2296 56.4092 84.7785 51.5635C84.8006 51.5192 84.8006 51.4528 84.8228 51.4086C84.867 51.5635 84.8891 51.7184 84.9334 51.8954V51.9175C84.8891 53.2008 84.8891 54.4621 84.867 55.7454C84.8228 57.7811 84.8006 59.8166 84.7785 61.8526C84.7343 65.924 84.7343 69.9953 84.7785 74.0667C84.8006 78.0053 84.8449 81.9439 84.9334 85.9046C81.4595 85.8161 77.9856 85.5949 74.5338 85.2624C69.6437 84.7757 64.7537 84.0235 59.9522 83.0279C55.0622 82.0103 50.2385 80.7264 45.4812 79.2221C44.9502 79.0451 44.4192 78.8902 43.8659 78.7132C44.0209 77.1418 44.1757 75.5932 44.3307 74.0224C44.7511 70.1059 45.2157 66.2116 45.7025 62.3172C46.1672 58.4671 46.6761 54.6391 47.2072 50.8111C47.2735 50.3244 47.3399 49.8376 47.3841 49.3729C47.4505 48.8198 46.4991 48.687 46.4106 49.2402C45.7689 53.0681 45.2378 56.9182 44.7289 60.7679C44.1979 64.6844 43.7332 68.6009 43.3128 72.5174C42.8703 76.456 42.4941 80.4167 42.1401 84.3774C41.8081 88.3161 41.4984 92.2547 41.2771 96.1933C41.0559 100.065 40.8788 103.938 40.7682 107.832C40.7682 108.252 40.7461 108.739 40.7461 109.204C40.7461 109.624 41.1001 109.823 41.4099 109.757C41.4542 109.779 41.5205 109.801 41.5648 109.823C46.4548 110.62 51.3449 111.284 56.2792 111.815C61.2798 112.368 66.3026 112.788 71.3254 113.098C76.3925 113.408 81.4595 113.585 86.5266 113.607C91.5713 113.651 96.6161 113.541 101.639 113.297C106.574 113.054 111.53 112.678 116.442 112.103C116.951 112.036 117.46 111.97 117.969 111.903C118.257 111.97 118.611 111.793 118.633 111.372C118.721 110.399 118.721 109.403 118.743 108.429C118.765 107.456 118.788 106.46 118.81 105.486C118.854 103.562 118.898 101.636 118.965 99.7337C119.097 95.8835 119.23 92.0555 119.429 88.2054C119.805 80.5273 120.314 72.8492 120.934 65.1939C121.288 60.8564 121.753 56.5199 122.085 52.183C122.107 51.9175 121.841 51.6741 121.575 51.6741C121.265 51.6741 121.111 51.9175 121.066 52.183C120.557 56.0331 120.226 59.9051 119.872 63.7774C119.54 67.6054 119.23 71.4333 118.965 75.2835C118.788 77.8947 118.611 80.4831 118.478 83.0943C116.132 83.4261 113.809 83.8465 111.463 84.2005C109.029 84.5766 106.574 84.8863 104.117 85.1296C99.2052 85.6391 94.2489 85.9046 89.3148 85.9267C88.2743 85.9267 87.2124 85.9267 86.1726 85.9046C86.0177 78.3814 85.9292 70.8581 85.885 63.3349C85.8629 61.0562 85.8629 58.7547 85.8629 56.4756V55.0153C85.9071 55.148 85.9514 55.2808 86.0177 55.4136C86.9469 57.7368 88.208 59.883 89.7794 61.8305C90.6643 62.9146 91.6377 63.9101 92.7218 64.795C92.9658 64.9948 93.2976 65.039 93.541 64.795C93.7622 64.5738 93.7622 64.1977 93.541 63.9765C90.0448 60.7458 87.4336 56.6527 86.1726 52.0503C86.062 51.6299 85.9514 51.1874 85.8629 50.7669C85.8629 50.612 85.8629 50.435 85.8408 50.2801C92.1244 50.5899 98.4309 50.8997 104.715 51.2095C107.392 51.3422 110.092 51.475 112.769 51.6078C114.097 51.6741 115.402 51.7405 116.729 51.7848C117.415 51.8069 118.102 51.8511 118.788 51.8732C119.119 51.8954 119.473 51.9175 119.805 51.9175C120.137 51.9175 120.469 51.8511 120.779 51.8069C121.155 51.7626 121.133 51.143 120.779 51.0767C119.606 50.7891 118.367 50.7891 117.172 50.7226C115.999 50.6563 114.827 50.5899 113.654 50.5235C111.264 50.3907 108.874 50.258 106.485 50.1474C101.706 49.8818 96.9258 49.6385 92.1466 49.3729C89.9563 49.2623 87.7434 49.1517 85.553 49.0189C85.5308 48.864 85.5087 48.7312 85.4866 48.5763C85.5751 48.4879 85.6193 48.3772 85.5972 48.2223C85.5308 47.7134 85.4866 47.1824 85.4866 46.6734C87.9203 45.7441 90.62 45.545 93.2534 45.5892C95.2445 45.6114 97.2583 45.7662 99.2494 45.899C101.507 46.0318 103.785 46.1866 106.043 46.3194C108.299 46.4522 110.534 46.607 112.791 46.7398C114.982 46.8726 117.172 46.939 119.363 46.6734C123.036 46.2088 126.775 44.7042 128.944 41.54C130.957 38.5087 130.935 34.5479 129.541 31.2953Z"/>
    </mask>
    <path
        d="M128.479 39.3716C127.152 42.4915 123.987 44.2838 120.779 44.9918C118.743 45.4343 116.663 45.4786 114.584 45.4122C112.415 45.3458 110.225 45.1688 108.056 45.036C103.785 44.7705 99.5149 44.4608 95.2445 44.2616C92.0138 44.1067 88.6725 44.1288 85.5751 45.1688C85.6859 44.4829 85.8408 43.819 86.062 43.1774C86.6372 41.5179 87.5885 39.969 88.6504 38.5529C90.8634 35.6101 93.8728 33.2203 96.9258 31.1847C100.179 29.0384 103.719 27.2461 107.414 26.0291C111.132 24.8121 115.203 24.1705 119.031 25.0113C122.284 25.7193 125.47 27.4452 127.351 30.2332C129.143 32.8442 129.718 36.4287 128.479 39.3716ZM77.5652 41.6064C74.7329 39.1724 71.7015 36.9598 68.6923 34.747C65.7494 32.5786 62.9172 30.4545 60.2177 27.932C57.5846 25.4981 55.3277 22.9092 53.6018 19.8114C53.3805 19.4132 53.1814 19.0149 52.9823 18.6166C52.8937 18.4396 52.8052 18.2404 52.7167 18.0413C52.6725 17.9306 52.6282 17.8421 52.584 17.7315C52.5618 17.6873 52.5397 17.643 52.5176 17.5988C52.5176 17.5988 52.4733 17.5102 52.4733 17.4881C52.1193 16.6473 51.8538 15.7622 51.6546 14.855C51.2785 13.1955 51.1899 11.3368 51.544 9.69945C51.7432 8.81439 51.9865 8.1285 52.429 7.3983C52.8273 6.73447 53.4027 6.0707 54.0222 5.65029C55.7038 4.43332 57.7837 4.21202 59.8194 4.45544C61.7887 4.67667 63.7801 5.40687 65.5503 6.26981C67.3205 7.13275 69.0021 8.21699 70.4846 9.41185C73.6045 11.9343 76.1269 15.0985 78.0962 18.5723C80.3089 22.4888 81.7029 26.7814 82.5658 31.1847C83.4952 35.9861 83.7607 40.8983 83.7607 45.7884V45.899C83.3624 46.0981 82.9863 46.3194 82.6101 46.5628C81.0391 44.7927 79.3574 43.1553 77.5652 41.6064ZM83.7165 47.9568C83.6279 47.8461 83.5615 47.7355 83.473 47.647C83.5615 47.6028 83.65 47.5585 83.7165 47.4921V47.9568ZM87.4779 87.2984C92.4563 87.3426 97.4575 87.1214 102.414 86.6347C107.436 86.148 112.459 85.4621 117.371 84.3774C117.726 84.289 118.08 84.2226 118.434 84.112C118.168 88.847 117.947 93.5821 117.792 98.3178C117.726 100.464 117.659 102.632 117.615 104.778C117.593 105.885 117.57 106.969 117.548 108.075C117.526 109.027 117.504 109.978 117.526 110.93C112.835 111.35 108.144 111.771 103.431 112.036C98.4309 112.302 93.4082 112.412 88.4071 112.412C87.854 112.412 87.3009 112.412 86.7478 112.39C86.8142 112.302 86.8584 112.191 86.8805 112.08C87.0575 110.067 86.8584 108.009 86.7699 105.973C86.6814 103.938 86.6151 101.902 86.5487 99.8664C86.416 95.795 86.3053 91.7237 86.2169 87.6524V87.2541C86.6372 87.2763 87.0575 87.2763 87.4779 87.2984ZM58.337 110.797C53.4469 110.288 48.5569 109.646 43.7111 108.872C43.1358 108.783 42.5383 108.695 41.9631 108.584C42.0958 104.933 42.2064 101.26 42.4056 97.6092C42.6268 93.6933 42.8924 89.7768 43.2243 85.8604C43.3792 83.9129 43.5562 81.9881 43.7332 80.0627C48.3577 81.6563 53.115 82.9173 57.8944 83.9571C62.7845 85.0412 67.7187 85.8382 72.6752 86.3913C76.7465 86.8559 80.84 87.1214 84.9334 87.232C84.9998 90.9936 85.1104 94.7331 85.221 98.4947C85.2874 100.773 85.376 103.053 85.4645 105.354C85.5087 106.483 85.553 107.589 85.5972 108.717C85.6416 109.89 85.708 111.041 85.9071 112.213C85.9292 112.28 85.9514 112.346 85.9956 112.39C81.7693 112.346 77.5431 112.213 73.3389 111.992C68.3383 111.726 63.3155 111.328 58.337 110.797ZM129.541 31.2953C128.081 27.932 125.049 25.5423 121.664 24.2811C117.881 22.8649 113.721 22.9535 109.804 23.8607C105.799 24.79 101.949 26.4937 98.4088 28.5737C96.6604 29.5915 95.0011 30.7421 93.3861 31.9812C91.859 33.154 90.4209 34.4152 89.1157 35.8534C87.1682 37.9997 85.5087 40.5443 84.8228 43.3765C84.8228 40.3452 84.6458 37.3138 84.2696 34.3266C83.6721 29.5252 82.4995 24.79 80.4638 20.3867C78.7157 16.6252 76.3481 13.1292 73.3832 10.2305C70.4403 7.33193 66.9 5.05283 62.9836 3.76948C60.9036 3.10565 58.6024 2.7738 56.4119 3.17209C54.3762 3.54819 52.5618 4.6988 51.3891 6.42468C50.3491 7.97357 49.9287 9.85438 49.9066 11.6909C49.8623 13.5938 50.2385 15.5189 50.8802 17.289C52.1636 20.7629 54.3541 23.8607 56.8323 26.5601C59.3548 29.3039 62.2534 31.6493 65.2183 33.9062C66.723 35.0347 68.2276 36.1632 69.7322 37.2696C71.259 38.398 72.7415 39.5043 74.1797 40.6328C77.0783 42.934 79.8885 45.4343 82.2339 48.3108C82.3888 48.4879 82.5216 48.6648 82.6765 48.8419C76.2597 48.51 69.8429 48.1559 63.4261 47.824C58.0714 47.5364 52.6946 47.2488 47.3178 47.0053C46.4548 46.9611 46.4548 48.3108 47.3178 48.3551C56.8765 48.864 66.4353 49.3287 75.9942 49.7933C78.5387 49.9261 81.1054 50.0367 83.65 50.1695C83.6943 50.2359 83.7386 50.3022 83.805 50.3686C83.8492 50.435 83.8934 50.4793 83.9598 50.5235C83.9377 50.612 83.9156 50.6784 83.8934 50.7669C83.5394 51.8954 83.0305 52.9575 82.4109 53.9532C81.1718 55.9667 79.5123 57.6926 77.5209 58.9317C76.3703 59.6396 75.1755 60.1706 73.8921 60.5246C73.1177 60.7458 73.4495 61.919 74.224 61.7199C79.1804 60.4361 83.2296 56.4092 84.7785 51.5635C84.8006 51.5192 84.8006 51.4528 84.8228 51.4086C84.867 51.5635 84.8891 51.7184 84.9334 51.8954V51.9175C84.8891 53.2008 84.8891 54.4621 84.867 55.7454C84.8228 57.7811 84.8006 59.8166 84.7785 61.8526C84.7343 65.924 84.7343 69.9953 84.7785 74.0667C84.8006 78.0053 84.8449 81.9439 84.9334 85.9046C81.4595 85.8161 77.9856 85.5949 74.5338 85.2624C69.6437 84.7757 64.7537 84.0235 59.9522 83.0279C55.0622 82.0103 50.2385 80.7264 45.4812 79.2221C44.9502 79.0451 44.4192 78.8902 43.8659 78.7132C44.0209 77.1418 44.1757 75.5932 44.3307 74.0224C44.7511 70.1059 45.2157 66.2116 45.7025 62.3172C46.1672 58.4671 46.6761 54.6391 47.2072 50.8111C47.2735 50.3244 47.3399 49.8376 47.3841 49.3729C47.4505 48.8198 46.4991 48.687 46.4106 49.2402C45.7689 53.0681 45.2378 56.9182 44.7289 60.7679C44.1979 64.6844 43.7332 68.6009 43.3128 72.5174C42.8703 76.456 42.4941 80.4167 42.1401 84.3774C41.8081 88.3161 41.4984 92.2547 41.2771 96.1933C41.0559 100.065 40.8788 103.938 40.7682 107.832C40.7682 108.252 40.7461 108.739 40.7461 109.204C40.7461 109.624 41.1001 109.823 41.4099 109.757C41.4542 109.779 41.5205 109.801 41.5648 109.823C46.4548 110.62 51.3449 111.284 56.2792 111.815C61.2798 112.368 66.3026 112.788 71.3254 113.098C76.3925 113.408 81.4595 113.585 86.5266 113.607C91.5713 113.651 96.6161 113.541 101.639 113.297C106.574 113.054 111.53 112.678 116.442 112.103C116.951 112.036 117.46 111.97 117.969 111.903C118.257 111.97 118.611 111.793 118.633 111.372C118.721 110.399 118.721 109.403 118.743 108.429C118.765 107.456 118.788 106.46 118.81 105.486C118.854 103.562 118.898 101.636 118.965 99.7337C119.097 95.8835 119.23 92.0555 119.429 88.2054C119.805 80.5273 120.314 72.8492 120.934 65.1939C121.288 60.8564 121.753 56.5199 122.085 52.183C122.107 51.9175 121.841 51.6741 121.575 51.6741C121.265 51.6741 121.111 51.9175 121.066 52.183C120.557 56.0331 120.226 59.9051 119.872 63.7774C119.54 67.6054 119.23 71.4333 118.965 75.2835C118.788 77.8947 118.611 80.4831 118.478 83.0943C116.132 83.4261 113.809 83.8465 111.463 84.2005C109.029 84.5766 106.574 84.8863 104.117 85.1296C99.2052 85.6391 94.2489 85.9046 89.3148 85.9267C88.2743 85.9267 87.2124 85.9267 86.1726 85.9046C86.0177 78.3814 85.9292 70.8581 85.885 63.3349C85.8629 61.0562 85.8629 58.7547 85.8629 56.4756V55.0153C85.9071 55.148 85.9514 55.2808 86.0177 55.4136C86.9469 57.7368 88.208 59.883 89.7794 61.8305C90.6643 62.9146 91.6377 63.9101 92.7218 64.795C92.9658 64.9948 93.2976 65.039 93.541 64.795C93.7622 64.5738 93.7622 64.1977 93.541 63.9765C90.0448 60.7458 87.4336 56.6527 86.1726 52.0503C86.062 51.6299 85.9514 51.1874 85.8629 50.7669C85.8629 50.612 85.8629 50.435 85.8408 50.2801C92.1244 50.5899 98.4309 50.8997 104.715 51.2095C107.392 51.3422 110.092 51.475 112.769 51.6078C114.097 51.6741 115.402 51.7405 116.729 51.7848C117.415 51.8069 118.102 51.8511 118.788 51.8732C119.119 51.8954 119.473 51.9175 119.805 51.9175C120.137 51.9175 120.469 51.8511 120.779 51.8069C121.155 51.7626 121.133 51.143 120.779 51.0767C119.606 50.7891 118.367 50.7891 117.172 50.7226C115.999 50.6563 114.827 50.5899 113.654 50.5235C111.264 50.3907 108.874 50.258 106.485 50.1474C101.706 49.8818 96.9258 49.6385 92.1466 49.3729C89.9563 49.2623 87.7434 49.1517 85.553 49.0189C85.5308 48.864 85.5087 48.7312 85.4866 48.5763C85.5751 48.4879 85.6193 48.3772 85.5972 48.2223C85.5308 47.7134 85.4866 47.1824 85.4866 46.6734C87.9203 45.7441 90.62 45.545 93.2534 45.5892C95.2445 45.6114 97.2583 45.7662 99.2494 45.899C101.507 46.0318 103.785 46.1866 106.043 46.3194C108.299 46.4522 110.534 46.607 112.791 46.7398C114.982 46.8726 117.172 46.939 119.363 46.6734C123.036 46.2088 126.775 44.7042 128.944 41.54C130.957 38.5087 130.935 34.5479 129.541 31.2953Z"
        fill="#5B34C9"/>
    <path
        d="M128.479 39.3716C127.152 42.4915 123.987 44.2838 120.779 44.9918C118.743 45.4343 116.663 45.4786 114.584 45.4122C112.415 45.3458 110.225 45.1688 108.056 45.036C103.785 44.7705 99.5149 44.4608 95.2445 44.2616C92.0138 44.1067 88.6725 44.1288 85.5751 45.1688C85.6859 44.4829 85.8408 43.819 86.062 43.1774C86.6372 41.5179 87.5885 39.969 88.6504 38.5529C90.8634 35.6101 93.8728 33.2203 96.9258 31.1847C100.179 29.0384 103.719 27.2461 107.414 26.0291C111.132 24.8121 115.203 24.1705 119.031 25.0113C122.284 25.7193 125.47 27.4452 127.351 30.2332C129.143 32.8442 129.718 36.4287 128.479 39.3716ZM77.5652 41.6064C74.7329 39.1724 71.7015 36.9598 68.6923 34.747C65.7494 32.5786 62.9172 30.4545 60.2177 27.932C57.5846 25.4981 55.3277 22.9092 53.6018 19.8114C53.3805 19.4132 53.1814 19.0149 52.9823 18.6166C52.8937 18.4396 52.8052 18.2404 52.7167 18.0413C52.6725 17.9306 52.6282 17.8421 52.584 17.7315C52.5618 17.6873 52.5397 17.643 52.5176 17.5988C52.5176 17.5988 52.4733 17.5102 52.4733 17.4881C52.1193 16.6473 51.8538 15.7622 51.6546 14.855C51.2785 13.1955 51.1899 11.3368 51.544 9.69945C51.7432 8.81439 51.9865 8.1285 52.429 7.3983C52.8273 6.73447 53.4027 6.0707 54.0222 5.65029C55.7038 4.43332 57.7837 4.21202 59.8194 4.45544C61.7887 4.67667 63.7801 5.40687 65.5503 6.26981C67.3205 7.13275 69.0021 8.21699 70.4846 9.41185C73.6045 11.9343 76.1269 15.0985 78.0962 18.5723C80.3089 22.4888 81.7029 26.7814 82.5658 31.1847C83.4952 35.9861 83.7607 40.8983 83.7607 45.7884V45.899C83.3624 46.0981 82.9863 46.3194 82.6101 46.5628C81.0391 44.7927 79.3574 43.1553 77.5652 41.6064ZM83.7165 47.9568C83.6279 47.8461 83.5615 47.7355 83.473 47.647C83.5615 47.6028 83.65 47.5585 83.7165 47.4921V47.9568ZM87.4779 87.2984C92.4563 87.3426 97.4575 87.1214 102.414 86.6347C107.436 86.148 112.459 85.4621 117.371 84.3774C117.726 84.289 118.08 84.2226 118.434 84.112C118.168 88.847 117.947 93.5821 117.792 98.3178C117.726 100.464 117.659 102.632 117.615 104.778C117.593 105.885 117.57 106.969 117.548 108.075C117.526 109.027 117.504 109.978 117.526 110.93C112.835 111.35 108.144 111.771 103.431 112.036C98.4309 112.302 93.4082 112.412 88.4071 112.412C87.854 112.412 87.3009 112.412 86.7478 112.39C86.8142 112.302 86.8584 112.191 86.8805 112.08C87.0575 110.067 86.8584 108.009 86.7699 105.973C86.6814 103.938 86.6151 101.902 86.5487 99.8664C86.416 95.795 86.3053 91.7237 86.2169 87.6524V87.2541C86.6372 87.2763 87.0575 87.2763 87.4779 87.2984ZM58.337 110.797C53.4469 110.288 48.5569 109.646 43.7111 108.872C43.1358 108.783 42.5383 108.695 41.9631 108.584C42.0958 104.933 42.2064 101.26 42.4056 97.6092C42.6268 93.6933 42.8924 89.7768 43.2243 85.8604C43.3792 83.9129 43.5562 81.9881 43.7332 80.0627C48.3577 81.6563 53.115 82.9173 57.8944 83.9571C62.7845 85.0412 67.7187 85.8382 72.6752 86.3913C76.7465 86.8559 80.84 87.1214 84.9334 87.232C84.9998 90.9936 85.1104 94.7331 85.221 98.4947C85.2874 100.773 85.376 103.053 85.4645 105.354C85.5087 106.483 85.553 107.589 85.5972 108.717C85.6416 109.89 85.708 111.041 85.9071 112.213C85.9292 112.28 85.9514 112.346 85.9956 112.39C81.7693 112.346 77.5431 112.213 73.3389 111.992C68.3383 111.726 63.3155 111.328 58.337 110.797ZM129.541 31.2953C128.081 27.932 125.049 25.5423 121.664 24.2811C117.881 22.8649 113.721 22.9535 109.804 23.8607C105.799 24.79 101.949 26.4937 98.4088 28.5737C96.6604 29.5915 95.0011 30.7421 93.3861 31.9812C91.859 33.154 90.4209 34.4152 89.1157 35.8534C87.1682 37.9997 85.5087 40.5443 84.8228 43.3765C84.8228 40.3452 84.6458 37.3138 84.2696 34.3266C83.6721 29.5252 82.4995 24.79 80.4638 20.3867C78.7157 16.6252 76.3481 13.1292 73.3832 10.2305C70.4403 7.33193 66.9 5.05283 62.9836 3.76948C60.9036 3.10565 58.6024 2.7738 56.4119 3.17209C54.3762 3.54819 52.5618 4.6988 51.3891 6.42468C50.3491 7.97357 49.9287 9.85438 49.9066 11.6909C49.8623 13.5938 50.2385 15.5189 50.8802 17.289C52.1636 20.7629 54.3541 23.8607 56.8323 26.5601C59.3548 29.3039 62.2534 31.6493 65.2183 33.9062C66.723 35.0347 68.2276 36.1632 69.7322 37.2696C71.259 38.398 72.7415 39.5043 74.1797 40.6328C77.0783 42.934 79.8885 45.4343 82.2339 48.3108C82.3888 48.4879 82.5216 48.6648 82.6765 48.8419C76.2597 48.51 69.8429 48.1559 63.4261 47.824C58.0714 47.5364 52.6946 47.2488 47.3178 47.0053C46.4548 46.9611 46.4548 48.3108 47.3178 48.3551C56.8765 48.864 66.4353 49.3287 75.9942 49.7933C78.5387 49.9261 81.1054 50.0367 83.65 50.1695C83.6943 50.2359 83.7386 50.3022 83.805 50.3686C83.8492 50.435 83.8934 50.4793 83.9598 50.5235C83.9377 50.612 83.9156 50.6784 83.8934 50.7669C83.5394 51.8954 83.0305 52.9575 82.4109 53.9532C81.1718 55.9667 79.5123 57.6926 77.5209 58.9317C76.3703 59.6396 75.1755 60.1706 73.8921 60.5246C73.1177 60.7458 73.4495 61.919 74.224 61.7199C79.1804 60.4361 83.2296 56.4092 84.7785 51.5635C84.8006 51.5192 84.8006 51.4528 84.8228 51.4086C84.867 51.5635 84.8891 51.7184 84.9334 51.8954V51.9175C84.8891 53.2008 84.8891 54.4621 84.867 55.7454C84.8228 57.7811 84.8006 59.8166 84.7785 61.8526C84.7343 65.924 84.7343 69.9953 84.7785 74.0667C84.8006 78.0053 84.8449 81.9439 84.9334 85.9046C81.4595 85.8161 77.9856 85.5949 74.5338 85.2624C69.6437 84.7757 64.7537 84.0235 59.9522 83.0279C55.0622 82.0103 50.2385 80.7264 45.4812 79.2221C44.9502 79.0451 44.4192 78.8902 43.8659 78.7132C44.0209 77.1418 44.1757 75.5932 44.3307 74.0224C44.7511 70.1059 45.2157 66.2116 45.7025 62.3172C46.1672 58.4671 46.6761 54.6391 47.2072 50.8111C47.2735 50.3244 47.3399 49.8376 47.3841 49.3729C47.4505 48.8198 46.4991 48.687 46.4106 49.2402C45.7689 53.0681 45.2378 56.9182 44.7289 60.7679C44.1979 64.6844 43.7332 68.6009 43.3128 72.5174C42.8703 76.456 42.4941 80.4167 42.1401 84.3774C41.8081 88.3161 41.4984 92.2547 41.2771 96.1933C41.0559 100.065 40.8788 103.938 40.7682 107.832C40.7682 108.252 40.7461 108.739 40.7461 109.204C40.7461 109.624 41.1001 109.823 41.4099 109.757C41.4542 109.779 41.5205 109.801 41.5648 109.823C46.4548 110.62 51.3449 111.284 56.2792 111.815C61.2798 112.368 66.3026 112.788 71.3254 113.098C76.3925 113.408 81.4595 113.585 86.5266 113.607C91.5713 113.651 96.6161 113.541 101.639 113.297C106.574 113.054 111.53 112.678 116.442 112.103C116.951 112.036 117.46 111.97 117.969 111.903C118.257 111.97 118.611 111.793 118.633 111.372C118.721 110.399 118.721 109.403 118.743 108.429C118.765 107.456 118.788 106.46 118.81 105.486C118.854 103.562 118.898 101.636 118.965 99.7337C119.097 95.8835 119.23 92.0555 119.429 88.2054C119.805 80.5273 120.314 72.8492 120.934 65.1939C121.288 60.8564 121.753 56.5199 122.085 52.183C122.107 51.9175 121.841 51.6741 121.575 51.6741C121.265 51.6741 121.111 51.9175 121.066 52.183C120.557 56.0331 120.226 59.9051 119.872 63.7774C119.54 67.6054 119.23 71.4333 118.965 75.2835C118.788 77.8947 118.611 80.4831 118.478 83.0943C116.132 83.4261 113.809 83.8465 111.463 84.2005C109.029 84.5766 106.574 84.8863 104.117 85.1296C99.2052 85.6391 94.2489 85.9046 89.3148 85.9267C88.2743 85.9267 87.2124 85.9267 86.1726 85.9046C86.0177 78.3814 85.9292 70.8581 85.885 63.3349C85.8629 61.0562 85.8629 58.7547 85.8629 56.4756V55.0153C85.9071 55.148 85.9514 55.2808 86.0177 55.4136C86.9469 57.7368 88.208 59.883 89.7794 61.8305C90.6643 62.9146 91.6377 63.9101 92.7218 64.795C92.9658 64.9948 93.2976 65.039 93.541 64.795C93.7622 64.5738 93.7622 64.1977 93.541 63.9765C90.0448 60.7458 87.4336 56.6527 86.1726 52.0503C86.062 51.6299 85.9514 51.1874 85.8629 50.7669C85.8629 50.612 85.8629 50.435 85.8408 50.2801C92.1244 50.5899 98.4309 50.8997 104.715 51.2095C107.392 51.3422 110.092 51.475 112.769 51.6078C114.097 51.6741 115.402 51.7405 116.729 51.7848C117.415 51.8069 118.102 51.8511 118.788 51.8732C119.119 51.8954 119.473 51.9175 119.805 51.9175C120.137 51.9175 120.469 51.8511 120.779 51.8069C121.155 51.7626 121.133 51.143 120.779 51.0767C119.606 50.7891 118.367 50.7891 117.172 50.7226C115.999 50.6563 114.827 50.5899 113.654 50.5235C111.264 50.3907 108.874 50.258 106.485 50.1474C101.706 49.8818 96.9258 49.6385 92.1466 49.3729C89.9563 49.2623 87.7434 49.1517 85.553 49.0189C85.5308 48.864 85.5087 48.7312 85.4866 48.5763C85.5751 48.4879 85.6193 48.3772 85.5972 48.2223C85.5308 47.7134 85.4866 47.1824 85.4866 46.6734C87.9203 45.7441 90.62 45.545 93.2534 45.5892C95.2445 45.6114 97.2583 45.7662 99.2494 45.899C101.507 46.0318 103.785 46.1866 106.043 46.3194C108.299 46.4522 110.534 46.607 112.791 46.7398C114.982 46.8726 117.172 46.939 119.363 46.6734C123.036 46.2088 126.775 44.7042 128.944 41.54C130.957 38.5087 130.935 34.5479 129.541 31.2953Z"
        stroke="#5B34C9" stroke-width="2" mask="url(#path-1-outside-1_4_4)"/>
    <path d="M133.364 105.152C136.561 104.846 139.392 106.263 142.348 106.666" stroke="#B8FF8D" stroke-width="2"
            stroke-linecap="round"/>
    <path
        d="M131.957 112.047C132.961 112.516 133.879 113.162 134.807 113.761C136.182 114.651 137.601 115.464 138.988 116.334C141.679 118.021 144.049 120.044 146.533 122.005"
        stroke="#B8FF8D" stroke-width="2" stroke-linecap="round"/>
    <path
        d="M127.543 118.676C130.128 120.62 131.994 123.146 133.87 125.761C134.929 127.237 135.964 128.756 136.724 130.409"
        stroke="#B8FF8D" stroke-width="2" stroke-linecap="round"/>
    <g opacity="0.9" clip-path="url(#clip0_4_4)">
        <path fill-rule="evenodd" clip-rule="evenodd"
                d="M12.4108 48.5355C13.0356 48.0512 13.6703 47.4717 14.0852 46.7982C14.5781 45.9982 14.6119 45.1651 14.5418 44.3228C14.4516 43.2407 14.1963 42.1403 14.1564 41.0399C14.1413 40.6314 14.3015 40.4225 14.3696 40.3308C14.5418 40.0991 14.7544 39.9825 14.9727 39.9284C15.2312 39.8638 15.6095 39.8456 15.9765 40.194C16.0289 40.2439 16.1015 40.3224 16.1715 40.4395C16.2226 40.5254 16.3312 40.8109 16.3924 40.9233C16.5439 41.1997 16.6864 41.479 16.8267 41.7609C17.2936 42.6991 17.6507 43.5089 18.4012 44.2653C19.4197 45.2923 20.2829 45.8419 21.2282 45.9006C22.1423 45.9573 23.089 45.5796 24.2412 44.9218C24.3493 44.8548 24.4576 44.7922 24.5662 44.7345C25.0794 44.4607 25.7172 44.6473 26.0022 45.1547C26.287 45.6617 26.1143 46.3034 25.6138 46.5997C25.5093 46.6614 25.406 46.7214 25.3033 46.779C23.77 47.7398 22.3219 49.8483 21.6228 51.5078C21.4074 52.0195 21.2659 53.2987 20.9821 54.1783C20.7725 54.8272 20.4572 55.3131 20.1374 55.5532C19.9232 55.7145 19.7157 55.7686 19.5342 55.7823C19.2704 55.8021 19.0246 55.7364 18.8002 55.5771C18.6779 55.4898 18.5488 55.3615 18.4468 55.1769C18.3978 55.088 18.3168 54.848 18.2815 54.7389C18.0572 54.4111 17.8122 54.0996 17.5983 53.7649C17.088 52.9662 16.4672 52.5582 15.7057 52C14.9933 51.4775 14.328 51.2206 13.4466 51.1306C13.3386 51.139 12.4666 51.2062 12.1443 51.1863C11.6733 51.1567 11.3834 50.9432 11.2622 50.8168C11.0563 50.6024 10.9707 50.3841 10.9342 50.1907C10.8806 49.9051 10.9266 49.6306 11.0825 49.37C11.1789 49.2082 11.3431 49.0277 11.5949 48.8834C11.7892 48.7714 12.3343 48.5646 12.4108 48.5355ZM16.6797 45.5599C16.7444 45.631 16.8118 45.7017 16.8818 45.7724C18.3736 47.2765 19.711 47.9507 21.0958 48.0363L21.1421 48.0387C20.5223 48.9159 20.0037 49.8392 19.6507 50.6771C19.5054 51.0221 19.3793 51.681 19.233 52.3623C18.6061 51.4757 17.8813 50.9415 16.9712 50.274C16.2762 49.7647 15.6125 49.4276 14.8649 49.2207C15.2608 48.82 15.6211 48.3847 15.9071 47.9206C16.3832 47.1477 16.6071 46.3598 16.6797 45.5599Z"
                fill="#B8FF8D"/>
    </g>
    <g opacity="0.9" clip-path="url(#clip1_4_4)">
        <path fill-rule="evenodd" clip-rule="evenodd"
                d="M25.7953 14.0842C25.6138 13.739 25.4489 13.3931 25.3005 13.0417C25.0775 12.5147 24.9263 11.9596 24.7325 11.423C24.6501 11.1955 24.4259 10.6052 24.4087 10.5154C24.2628 9.73124 24.8313 9.41736 25.0019 9.33865C25.0836 9.29818 25.9322 8.91066 26.4428 9.82521C27.0679 10.9432 27.5373 12.1213 27.8413 13.3264C28.3625 14.2648 29.019 15.1541 29.75 15.9145C32.6583 18.9385 36.0688 18.2058 39.629 17.0011C40.1756 16.8127 40.773 17.094 40.9809 17.6305C41.1901 18.1711 40.9375 18.7814 40.407 19.0101C38.4742 19.858 35.458 22.621 34.7804 24.6893C34.6388 25.1222 34.7659 26.0126 34.8396 26.9023C34.9404 28.1377 34.985 29.3779 34.7747 29.9743C34.744 30.0663 34.3231 31.041 34.16 31.2173C33.7668 31.6373 33.3332 31.6113 33.0694 31.5433C32.8057 31.4752 32.4687 31.2812 32.2207 30.8579C31.9615 30.4156 31.7279 29.4101 31.6432 29.206C31.3357 28.4658 30.6949 27.0256 29.9648 25.8467C29.5714 25.2119 29.1845 24.6341 28.7861 24.4148C27.3112 23.603 25.6233 24.3478 24.2175 25.0228C24.0556 25.0987 23.895 25.1787 23.7334 25.2545C23.1933 25.6272 22.6014 25.9669 21.9558 26.2651C20.9815 26.7167 20.5091 25.8396 20.4798 25.781C20.4165 25.6518 20.1173 24.977 20.7896 24.4473C20.8635 24.3912 21.434 24.0539 21.6533 23.9229C21.9591 23.7407 22.2739 23.5737 22.5913 23.4105C25.6982 21.1997 26.586 17.562 25.7953 14.0842ZM28.2071 17.4257C30.3995 19.6979 32.81 20.3527 35.3534 20.1728L35.353 20.173C34.1379 21.4219 33.1187 22.8203 32.728 24.017C32.5794 24.4704 32.5742 25.2859 32.6229 26.1838C32.2508 25.4557 31.8202 24.6922 31.3765 24.0649C30.871 23.3487 30.3253 22.7958 29.8291 22.5222C28.8714 21.9953 27.8436 21.8642 26.819 21.9686C27.6306 20.5792 28.0835 19.0303 28.2071 17.4257Z"
                fill="#B8FF8D"/>
    </g>
    <defs>
        <clipPath id="clip0_4_4">
            <rect width="16.6912" height="16.6912" fill="white"
                    transform="translate(8.08984 42.184) rotate(-18.1672)"/>
        </clipPath>
        <clipPath id="clip1_4_4">
            <rect width="24.192" height="24.192" fill="white"
                    transform="translate(15.2031 12.5428) rotate(-18.1672)"/>
        </clipPath>
    </defs>
</svg>