<svg width="33" height="32" viewBox="0 0 33 32" fill="none" xmlns="http://www.w3.org/2000/svg">
<circle cx="16.5" cy="16" r="16" fill="#5B34C9"/>
<mask id="mask0_1687_836" style="mask-type:alpha" maskUnits="userSpaceOnUse" x="0" y="0" width="33" height="32">
<circle cx="16.5" cy="16" r="16" fill="white"/>
</mask>
<g mask="url(#mask0_1687_836)">
<circle cx="27.4854" cy="25.2101" r="16" fill="#9169FF"/>
<path d="M16.1935 18.8962L14.5783 20.4839H12.657V21.7641H11.3762V23.0443C11.3762 23.3978 11.0893 23.6847 10.7357 23.6847H9.45488C9.10137 23.6854 8.81445 23.3985 8.81445 23.0449V21.8646C8.81445 21.1851 9.08471 20.5338 9.56504 20.0535L13.4992 16.12L16.1935 18.8962ZM22.9859 15.8888L20.1923 18.0682C19.2637 18.7925 17.9412 18.7112 17.1087 17.8786L14.6296 15.3995C13.788 14.558 13.715 13.2169 14.4611 12.2889L16.7225 9.47424C17.7901 8.14663 19.7171 7.93272 21.0659 8.97278C21.4629 9.27891 21.8696 9.6273 22.2577 10.0154C22.7605 10.5181 23.2139 11.0817 23.6052 11.6286C24.5748 12.9851 24.3 14.8635 22.9859 15.8888ZM21.4245 12.3338L20.1437 11.0529C19.8932 10.8025 19.4885 10.8025 19.2381 11.0529C18.9877 11.3033 18.9877 11.7081 19.2381 11.9585L20.5189 13.2393C20.7694 13.4897 21.1741 13.4897 21.4245 13.2393C21.6749 12.9889 21.6749 12.5842 21.4245 12.3338Z" fill="url(#paint0_linear_1687_836)"/>
</g>
<defs>
<linearGradient id="paint0_linear_1687_836" x1="16.4994" y1="8.31543" x2="16.4994" y2="26.0068" gradientUnits="userSpaceOnUse">
<stop stop-color="white"/>
<stop offset="1" stop-color="#E3E3E3"/>
</linearGradient>
</defs>
</svg>
