<svg width="33" height="32" viewBox="0 0 33 32" fill="none" xmlns="http://www.w3.org/2000/svg">
<circle cx="16.5" cy="16" r="16" fill="#5B34C9"/>
<mask id="mask0_1687_876" style="mask-type:alpha" maskUnits="userSpaceOnUse" x="0" y="0" width="33" height="32">
<circle cx="16.5" cy="16" r="16" fill="white"/>
</mask>
<g mask="url(#mask0_1687_876)">
<circle cx="27.4854" cy="25.21" r="16" fill="#9169FF"/>
<path d="M10.1812 14.2254V13.6992C10.1812 12.2484 11.4128 11.0681 12.9267 11.0681H13.4758V10.5418C13.4758 10.2514 13.7212 10.0156 14.0249 10.0156C14.3285 10.0156 14.574 10.2514 14.574 10.5418V11.0681H18.9668V10.5418C18.9668 10.2514 19.2123 10.0156 19.5159 10.0156C19.8196 10.0156 20.065 10.2514 20.065 10.5418V11.0681H20.6141C22.128 11.0681 23.3597 12.2484 23.3597 13.6992V14.2254H10.1812ZM23.3597 15.2779V20.0139C23.3597 21.4647 22.128 22.645 20.6141 22.645H12.9267C11.4128 22.645 10.1812 21.4647 10.1812 20.0139V15.2779H23.3597ZM16.7704 20.0139C16.7704 19.7234 16.525 19.4877 16.2213 19.4877H13.4758C13.1721 19.4877 12.9267 19.7234 12.9267 20.0139C12.9267 20.3044 13.1721 20.5401 13.4758 20.5401H16.2213C16.525 20.5401 16.7704 20.3044 16.7704 20.0139ZM20.6141 17.909C20.6141 17.6185 20.3687 17.3828 20.065 17.3828H13.4758C13.1721 17.3828 12.9267 17.6185 12.9267 17.909C12.9267 18.1995 13.1721 18.4352 13.4758 18.4352H20.065C20.3687 18.4352 20.6141 18.1995 20.6141 17.909Z" fill="white"/>
</g>
</svg>
