<svg width="33" height="32" viewBox="0 0 33 32" fill="none" xmlns="http://www.w3.org/2000/svg">
<circle cx="16.5" cy="16" r="16" fill="#5B34C9"/>
<mask id="mask0_1687_856" style="mask-type:alpha" maskUnits="userSpaceOnUse" x="0" y="0" width="33" height="32">
<circle cx="16.5" cy="16" r="16" fill="white"/>
</mask>
<g mask="url(#mask0_1687_856)">
<circle cx="27.4854" cy="25.2101" r="16" fill="#9169FF"/>
<path d="M15.8623 19.8264V19.1887H15.6914C15.0109 19.1887 14.3757 18.8226 14.0345 18.2327C13.8585 17.9272 13.9624 17.5376 14.2673 17.3616C14.5715 17.1843 14.9618 17.2889 15.1384 17.5937C15.2526 17.7914 15.4643 17.9132 15.6914 17.9132H17.1377C17.4898 17.9132 17.7755 17.6275 17.7755 17.2755C17.7755 17.0338 17.6026 16.8303 17.3641 16.7902L15.4254 16.4675C14.5696 16.3246 13.9491 15.5912 13.9491 14.7245C13.9491 13.6697 14.8074 12.8113 15.8623 12.8113V12.1736C15.8623 11.8209 16.148 11.5358 16.5 11.5358C16.852 11.5358 17.1377 11.8209 17.1377 12.1736V12.8113H17.3086C17.9891 12.8113 18.6243 13.1774 18.9655 13.7673C19.1421 14.0728 19.0376 14.4624 18.7334 14.6384C18.4272 14.8151 18.0369 14.7105 17.8622 14.4063C17.748 14.2086 17.5363 14.0868 17.3093 14.0868H15.8629C15.5115 14.0868 15.2252 14.3725 15.2252 14.7245C15.2252 14.9662 15.398 15.1697 15.6359 15.2098L17.5752 15.5325C18.4311 15.6754 19.0516 16.4088 19.0516 17.2755C19.0516 18.3303 18.1932 19.1887 17.1384 19.1887V19.8264C17.1384 20.1791 16.8527 20.4642 16.5006 20.4642C16.1486 20.4642 15.8629 20.1791 15.8629 19.8264H15.8623ZM19.6887 13.4491C19.6887 13.8017 19.9737 14.0868 20.3264 14.0868H22.8716C23.5776 14.0868 24.1528 13.5122 24.1528 12.8056V10.2604C24.1528 9.90771 23.8678 9.62264 23.5151 9.62264C23.1624 9.62264 22.8774 9.90771 22.8774 10.2604L22.8742 11.7559C21.4775 9.64432 19.1173 8.34717 16.5 8.34717C12.2801 8.34717 8.84717 11.7801 8.84717 16C8.84717 20.2199 12.2801 23.6528 16.5 23.6528C20.7199 23.6528 24.1528 20.2199 24.1528 16C24.1528 15.6473 23.8678 15.3623 23.5151 15.3623C23.1624 15.3623 22.8774 15.6473 22.8774 16C22.8774 19.5165 20.0165 22.3774 16.5 22.3774C12.9835 22.3774 10.1226 19.5165 10.1226 16C10.1226 12.4835 12.9835 9.62264 16.5 9.62264C18.8214 9.62264 20.901 10.8477 22.0266 12.8113H20.3264C19.9737 12.8113 19.6887 13.0964 19.6887 13.4491Z" fill="white"/>
</g>
</svg>
