<svg width="33" height="32" viewBox="0 0 33 32" fill="none" xmlns="http://www.w3.org/2000/svg">
<circle cx="16.5" cy="16" r="16" fill="#5B34C9"/>
<mask id="mask0_1687_866" style="mask-type:alpha" maskUnits="userSpaceOnUse" x="0" y="0" width="33" height="32">
<circle cx="16.5" cy="16" r="16" fill="white"/>
</mask>
<g mask="url(#mask0_1687_866)">
<circle cx="27.4854" cy="25.2101" r="16" fill="#9169FF"/>
<path d="M15.7179 14.9334C15.7179 15.2861 15.4307 15.5733 15.078 15.5733H14.7937V14.2935H15.078C15.4307 14.2935 15.7179 14.5808 15.7179 14.9334ZM25.0317 13.156V18.8438C25.0317 20.804 23.437 22.3987 21.4768 22.3987H11.5232C9.56299 22.3987 7.96826 20.804 7.96826 18.8438V13.156C7.96826 11.1958 9.56299 9.60107 11.5232 9.60107H21.4768C23.437 9.60107 25.0317 11.1958 25.0317 13.156ZM11.9497 15.5733V14.2928H12.377C12.6913 14.2928 12.9458 14.0383 12.9458 13.724C12.9458 13.4098 12.6913 13.1553 12.377 13.1553H11.3817C11.0674 13.1553 10.8129 13.4098 10.8129 13.724V18.2743C10.8129 18.5885 11.0674 18.8431 11.3817 18.8431C11.6959 18.8431 11.9505 18.5885 11.9505 18.2743V16.7101H12.3777C12.692 16.7101 12.9465 16.4556 12.9465 16.1414C12.9465 15.8271 12.692 15.5726 12.3777 15.5726H11.9505L11.9497 15.5733ZM16.0969 16.3867C16.564 16.0582 16.8676 15.5129 16.8548 14.8957C16.8349 13.9217 16.0108 13.156 15.0375 13.156H14.2249C13.9106 13.156 13.6561 13.4105 13.6561 13.7247V18.275C13.6561 18.5893 13.9106 18.8438 14.2249 18.8438C14.5391 18.8438 14.7937 18.5893 14.7937 18.275V16.7109H14.9956L15.4968 18.4336C15.5672 18.6767 15.7897 18.8438 16.0428 18.8438H16.0876C16.4694 18.8438 16.7432 18.4748 16.6315 18.1094L16.1061 16.3817C16.1225 16.3696 16.1232 16.3703 16.136 16.3611C16.1225 16.3696 16.1139 16.3767 16.0969 16.3867ZM18.3485 15.4311V14.2928H18.7758C19.0901 14.2928 19.3446 14.0383 19.3446 13.724C19.3446 13.4098 19.0901 13.1553 18.7758 13.1553H17.7805C17.4662 13.1553 17.2117 13.4098 17.2117 13.724V18.2743C17.2117 18.5885 17.4662 18.8431 17.7805 18.8431H18.7758C19.0901 18.8431 19.3446 18.5885 19.3446 18.2743C19.3446 17.96 19.0901 17.7055 18.7758 17.7055H18.3485V16.5672H18.7758C19.0901 16.5672 19.3446 16.3127 19.3446 15.9985C19.3446 15.6842 19.0901 15.4297 18.7758 15.4297H18.3485V15.4311ZM21.1925 15.4311V14.2928H21.6198C21.934 14.2928 22.1885 14.0383 22.1885 13.724C22.1885 13.4098 21.934 13.1553 21.6198 13.1553H20.6244C20.3101 13.1553 20.0556 13.4098 20.0556 13.724V18.2743C20.0556 18.5885 20.3101 18.8431 20.6244 18.8431H21.6198C21.934 18.8431 22.1885 18.5885 22.1885 18.2743C22.1885 17.96 21.934 17.7055 21.6198 17.7055H21.1925V16.5672H21.6198C21.934 16.5672 22.1885 16.3127 22.1885 15.9985C22.1885 15.6842 21.934 15.4297 21.6198 15.4297H21.1925V15.4311Z" fill="white"/>
</g>
</svg>
