<svg width="33" height="32" viewBox="0 0 33 32" fill="none" xmlns="http://www.w3.org/2000/svg">
<circle cx="16.5" cy="16" r="16" fill="#5B34C9"/>
<mask id="mask0_1687_886" style="mask-type:alpha" maskUnits="userSpaceOnUse" x="0" y="0" width="33" height="32">
<circle cx="16.5" cy="16" r="16" fill="white"/>
</mask>
<g mask="url(#mask0_1687_886)">
<circle cx="27.4854" cy="25.21" r="16" fill="#9169FF"/>
<path d="M19.4345 15.2228C20.2409 15.2228 21.0146 14.9025 21.5846 14.3325L22.3552 13.5625C22.9465 12.9718 22.9465 12.0043 22.3552 11.4135L21.584 10.6429C21.0134 10.0729 20.2403 9.75263 19.4339 9.75263H16.7009V9.14551C16.7009 8.80943 16.4293 8.53778 16.0932 8.53778C15.7571 8.53778 15.4855 8.80943 15.4855 9.14551V9.75323H12.143C10.9682 9.75323 10.0159 10.7055 10.0159 11.8803V13.0957C10.0159 14.2705 10.9682 15.2228 12.143 15.2228H15.4855V16.4382H12.7525C11.9461 16.4382 11.1724 16.7585 10.6024 17.3286L9.83118 18.0991C9.23987 18.6899 9.23987 19.6574 9.83118 20.2481L10.603 21.0193C11.1724 21.5887 11.9449 21.9084 12.7501 21.9084H15.4855V22.5161C15.4855 22.8522 15.7571 23.1238 16.0932 23.1238C16.4293 23.1238 16.7009 22.8522 16.7009 22.5161V21.9084H20.0434C21.2182 21.9084 22.1705 20.9561 22.1705 19.7813V18.5659C22.1705 17.3911 21.2182 16.4388 20.0434 16.4388H16.7009V15.2234H19.4345V15.2228ZM18.1145 18.922L16.7356 20.3593C16.2792 20.8126 15.4745 20.8047 15.0175 20.3502L14.2962 19.5966C14.0719 19.3608 14.0731 18.9907 14.2986 18.7567C14.538 18.5075 14.9373 18.5088 15.1755 18.7585L15.8811 19.4945L17.2424 18.0761C17.4806 17.8305 17.8738 17.8299 18.1127 18.0742C18.343 18.3094 18.3436 18.6856 18.1145 18.922ZM14.7519 13.8299C14.5143 13.5922 14.5143 13.2082 14.7519 12.9705L15.2339 12.4886L14.7519 12.0067C14.5143 11.7691 14.5143 11.385 14.7519 11.1474C14.9896 10.9097 15.3737 10.9097 15.6113 11.1474L16.0932 11.6293L16.5751 11.1474C16.8128 10.9097 17.1968 10.9097 17.4345 11.1474C17.6721 11.385 17.6721 11.7691 17.4345 12.0067L16.9525 12.4886L17.4345 12.9705C17.6721 13.2082 17.6721 13.5922 17.4345 13.8299C17.1968 14.0675 16.8128 14.0675 16.5751 13.8299L16.0932 13.3479L15.6113 13.8299C15.3737 14.0675 14.9896 14.0675 14.7519 13.8299Z" fill="white"/>
</g>
</svg>
