<svg width="33" height="32" viewBox="0 0 33 32" fill="none" xmlns="http://www.w3.org/2000/svg">
<circle cx="16.5" cy="16" r="16" fill="#5B34C9"/>
<mask id="mask0_1687_846" style="mask-type:alpha" maskUnits="userSpaceOnUse" x="0" y="0" width="33" height="32">
<circle cx="16.5" cy="16" r="16" fill="white"/>
</mask>
<g mask="url(#mask0_1687_846)">
<circle cx="27.4854" cy="25.2101" r="16" fill="#9169FF"/>
<path d="M19.6437 7.61914H13.3567C11.6239 7.61914 10.2139 9.02922 10.2139 10.762V23.6825C10.2139 23.9416 10.357 24.179 10.5861 24.3005C10.8152 24.4207 11.0925 24.4053 11.3062 24.2586L12.7763 23.2536L14.2472 24.2586C14.3659 24.3397 14.5035 24.3809 14.6411 24.3809C14.7786 24.3809 14.9169 24.3397 15.0357 24.2586L16.503 23.2536L17.9697 24.2586C18.2078 24.4207 18.5214 24.4207 18.7589 24.2586L20.2262 23.2543L21.6929 24.2586C21.9073 24.4053 22.1838 24.4207 22.4129 24.3005C22.642 24.1804 22.7859 23.9416 22.7859 23.6825V10.762C22.7859 9.02922 21.3765 7.61914 19.6437 7.61914ZM13.847 13.4857C14.1557 13.4857 14.4057 13.7358 14.4057 14.0445C14.4057 14.3532 14.1557 14.6032 13.847 14.6032H13.078V16.1397C13.078 16.4484 12.828 16.6984 12.5193 16.6984C12.2106 16.6984 11.9606 16.4484 11.9606 16.1397V11.6699C11.9606 11.3612 12.2106 11.1112 12.5193 11.1112H13.8463C14.155 11.1112 14.405 11.3612 14.405 11.6699C14.405 11.9786 14.155 12.2286 13.8463 12.2286H13.0773V13.4864H13.8463L13.847 13.4857ZM16.9898 13.4857C17.2985 13.4857 17.5485 13.7358 17.5485 14.0445C17.5485 14.3532 17.2985 14.6032 16.9898 14.6032H16.2208V15.581H16.9898C17.2985 15.581 17.5485 15.831 17.5485 16.1397C17.5485 16.4484 17.2985 16.6984 16.9898 16.6984H15.6628C15.3541 16.6984 15.1041 16.4484 15.1041 16.1397V11.6699C15.1041 11.3612 15.3541 11.1112 15.6628 11.1112H16.9898C17.2985 11.1112 17.5485 11.3612 17.5485 11.6699C17.5485 11.9786 17.2985 12.2286 16.9898 12.2286H16.2208V13.4864H16.9898V13.4857ZM20.1326 13.4857C20.4413 13.4857 20.6913 13.7358 20.6913 14.0445C20.6913 14.3532 20.4413 14.6032 20.1326 14.6032H19.3637V15.581H20.1326C20.4413 15.581 20.6913 15.831 20.6913 16.1397C20.6913 16.4484 20.4413 16.6984 20.1326 16.6984H18.8056C18.4969 16.6984 18.2469 16.4484 18.2469 16.1397V11.6699C18.2469 11.3612 18.4969 11.1112 18.8056 11.1112H20.1326C20.4413 11.1112 20.6913 11.3612 20.6913 11.6699C20.6913 11.9786 20.4413 12.2286 20.1326 12.2286H19.3637V13.4864H20.1326V13.4857Z" fill="white"/>
</g>
</svg>
